<svg xmlns="http://www.w3.org/2000/svg" xmlns:xlink="http://www.w3.org/1999/xlink" version="1.1" width="41" height="44"
     style="">
  <rect id="backgroundrect" width="100%" height="100%" x="0" y="0" fill="none" stroke="none"/>

  <g id="surface1" class="selected" fill="#136735" fill-opacity="1">
    <path style=" "
          d="M8,0 L8,19.3125 L8.1875,19.59375 L12.78125,26 L12.90625,26.21875 L13.75,27.53125 L17.875,34 L15.625,34 L15.34375,34.25 L9,39.8125 L9,34 L6,34 C3.7226560000000006,34 2,32.277344 2,30 L2,9 C2,6.722656000000001 3.7226560000000006,5 6,5 L7,5 L7,3 L6,3 C2.6757810000000006,3 0,5.675781000000001 0,9 L0,30 C0,33.324219 2.6757810000000006,36 6,36 L7,36 L7,44.21875 L8.65625,42.75 L16.375,36 L35,36 C38.324219,36 41,33.324219 41,30 L41,9 C41,5.675781000000001 38.324219,3 35,3 L20,3 L20,0 zM10,2 L18,2 L18,16.5 L14.375,15.0625 L14,14.9375 L13.625,15.0625 L10,16.5 zM20,5 L35,5 C37.277344,5 39,6.722656000000001 39,9 L39,26 L15.25,26 L19.8125,19.59375 L20,19.3125 zM14,17.09375 L17.96875,18.6875 L15.625,22 L12.375,22 L10.03125,18.6875 zM16.40625,28 L39,28 L39,30 C39,32.277344 37.277344,34 35,34 L20.21875,34 z"
          id="svg_1" fill="#136735" fill-opacity="1"/>
  </g>
</svg>
