<?xml version="1.0" standalone="no"?>
<!DOCTYPE svg PUBLIC "-//W3C//DTD SVG 20010904//EN"
 "http://www.w3.org/TR/2001/REC-SVG-20010904/DTD/svg10.dtd">
<svg version="1.0" xmlns="http://www.w3.org/2000/svg"
 width="1920.000000pt" height="1920.000000pt" viewBox="0 0 1920.000000 1920.000000"
 preserveAspectRatio="xMidYMid meet">
<metadata>
Created by potrace 1.15, written by Peter Selinger 2001-2017
</metadata>
<g transform="translate(0.000000,1920.000000) scale(0.100000,-0.100000)"
fill="#000000" stroke="none">
<path d="M9619 18015 c-44 -29 -89 -81 -89 -103 0 -9 -7 -78 -14 -152 -8 -74
-17 -191 -20 -260 -4 -69 -11 -163 -17 -210 -5 -47 -14 -152 -19 -235 -6 -82
-14 -184 -19 -225 -5 -41 -10 -128 -10 -192 -1 -64 -5 -128 -11 -143 -5 -14
-12 -76 -15 -138 -3 -61 -12 -193 -21 -292 -8 -99 -19 -236 -24 -305 -5 -69
-12 -154 -15 -190 -3 -36 -10 -126 -15 -200 -5 -74 -14 -169 -19 -210 -5 -41
-10 -134 -10 -206 -1 -71 -5 -134 -10 -140 -14 -13 -32 -390 -26 -524 17 -331
124 -595 368 -905 39 -49 80 -99 90 -110 74 -76 357 -458 357 -480 0 -3 20
-47 44 -98 24 -51 53 -126 66 -167 12 -41 27 -86 32 -100 13 -34 37 -166 49
-270 16 -149 6 -712 -20 -1085 -5 -71 -9 -247 -10 -390 -1 -143 -5 -276 -11
-295 -5 -19 -14 -200 -19 -401 -6 -201 -15 -451 -21 -555 -6 -104 -15 -310
-20 -459 -5 -148 -10 -313 -13 -365 -2 -52 -7 -230 -11 -395 -4 -165 -12 -315
-18 -333 -5 -18 -14 -207 -19 -420 -4 -213 -13 -486 -19 -607 -48 -1040 -51
-1269 -20 -1390 47 -182 103 -287 219 -408 56 -59 186 -157 206 -157 4 0 21
-6 38 -14 18 -8 65 -21 106 -30 244 -53 486 37 661 245 60 72 129 201 155 289
9 30 21 69 27 85 16 44 21 422 8 615 -6 91 -15 280 -20 420 -5 140 -11 321
-14 401 -3 80 -7 157 -10 170 -3 13 -8 148 -11 299 -3 152 -10 345 -15 430 -5
85 -15 321 -20 525 -6 203 -15 388 -20 410 -5 22 -10 159 -11 305 0 146 -5
321 -10 390 -5 69 -13 246 -18 394 -5 148 -14 362 -20 475 -6 113 -13 305 -16
426 -3 121 -12 346 -21 500 -17 335 -20 898 -4 970 6 28 15 81 20 118 5 38 13
73 17 80 3 6 12 34 19 61 26 106 104 289 163 381 14 22 30 48 36 57 27 45 91
134 118 165 16 19 51 60 76 93 25 32 82 102 126 156 44 53 89 109 101 123 34
42 94 130 94 138 0 3 6 14 14 22 38 42 126 237 159 351 46 156 52 209 52 440
0 124 -3 268 -8 320 -4 52 -11 158 -17 235 -5 77 -14 181 -19 230 -6 50 -15
175 -21 278 -6 103 -15 199 -20 213 -6 14 -10 80 -11 147 0 67 -5 156 -10 197
-5 41 -14 138 -19 215 -5 77 -12 167 -15 200 -3 33 -9 123 -15 200 -5 77 -17
206 -25 288 -8 81 -15 173 -15 205 0 31 -7 134 -15 227 -8 94 -20 226 -25 295
-23 286 -23 284 -52 322 -80 104 -254 101 -330 -5 -20 -28 -23 -44 -23 -137 0
-58 3 -145 7 -195 7 -84 20 -246 47 -610 7 -82 17 -197 22 -255 6 -58 14 -187
19 -288 4 -101 13 -195 18 -210 6 -15 14 -97 17 -182 4 -85 9 -173 11 -195 5
-53 29 -361 43 -550 7 -82 16 -195 22 -250 5 -55 14 -189 19 -298 5 -117 13
-204 20 -212 14 -17 7 -287 -9 -370 -15 -73 -39 -160 -56 -200 -33 -81 -94
-197 -137 -260 -49 -73 -71 -101 -299 -382 -186 -230 -227 -292 -313 -468 -77
-157 -112 -257 -138 -390 -5 -27 -14 -65 -20 -83 -10 -35 -22 -137 -38 -342
-9 -121 -2 -390 30 -1090 6 -118 14 -387 19 -597 5 -210 13 -404 19 -430 9
-40 22 -375 27 -723 1 -47 5 -94 8 -105 3 -11 9 -146 12 -300 3 -154 10 -352
15 -440 6 -88 15 -326 20 -530 6 -203 15 -386 20 -405 6 -19 10 -152 11 -295
1 -143 5 -321 10 -395 5 -74 13 -252 18 -395 6 -143 13 -327 17 -410 16 -321
9 -395 -49 -512 -39 -81 -84 -133 -150 -174 -45 -29 -61 -33 -122 -33 -84 -1
-128 19 -197 91 -58 60 -102 147 -125 249 -19 86 -20 125 -5 314 6 69 11 193
11 275 1 83 8 285 17 450 8 165 19 426 24 580 5 154 12 339 15 410 3 72 10
252 15 400 6 149 14 331 19 405 5 74 10 250 12 390 1 140 6 269 10 285 5 17
13 197 19 400 5 204 15 451 20 550 6 99 15 308 20 465 5 157 11 323 13 370 2
47 7 225 11 395 5 171 12 315 16 320 12 17 20 364 10 465 -5 52 -14 147 -20
210 -5 63 -14 126 -19 140 -6 14 -13 48 -17 75 -4 28 -11 58 -16 67 -5 10 -13
37 -17 60 -15 72 -65 198 -122 306 -30 57 -60 115 -68 130 -8 15 -27 43 -42
63 -16 20 -29 40 -29 44 0 10 -168 220 -316 396 -183 216 -307 453 -336 644
-28 187 -29 207 -19 303 12 101 16 149 32 372 5 74 12 151 14 170 3 19 8 107
11 195 3 88 10 167 15 176 4 9 11 69 14 135 5 115 17 267 51 685 18 230 28
367 44 619 6 102 15 205 21 230 6 25 13 119 15 210 3 91 10 184 15 208 14 63
28 354 19 402 -8 46 -58 105 -96 114 -13 4 -24 11 -24 16 0 6 -30 10 -67 9
-54 0 -76 -5 -104 -24z"/>
<path d="M10310 18019 c-19 -10 -50 -35 -67 -55 l-33 -37 0 -1573 c0 -1503 1
-1575 18 -1603 71 -117 265 -122 339 -10 l28 43 3 1530 c2 842 0 1550 -3 1574
-17 115 -176 188 -285 131z"/>
<path d="M11051 18020 c-44 -25 -77 -56 -90 -88 -8 -19 -11 -479 -9 -1599 l3
-1572 39 -40 c51 -52 121 -70 203 -53 62 13 75 21 115 76 l28 39 0 1567 0
1567 -29 40 c-56 77 -178 106 -260 63z"/>
<path d="M13360 18017 c-44 -27 -50 -33 -80 -82 l-25 -40 -2 -1240 c-2 -845
-7 -1256 -14 -1290 -8 -34 -14 -716 -20 -2175 -5 -1169 -13 -2618 -19 -3220
-8 -904 -28 -3644 -32 -4270 -1 -172 10 -265 43 -363 103 -308 371 -513 647
-494 95 7 179 24 206 43 11 8 28 14 38 14 44 0 222 160 283 255 37 58 95 186
95 212 0 10 7 36 15 58 17 47 19 358 4 495 -5 47 -14 175 -19 285 -5 110 -11
220 -14 245 -3 25 -10 128 -15 230 -6 102 -15 231 -21 288 -6 57 -15 190 -20
295 -10 225 -26 482 -41 657 -6 69 -14 227 -18 351 -5 124 -13 241 -19 260 -9
30 -27 370 -24 454 0 17 -3 41 -8 55 -5 14 -11 93 -14 175 -5 136 -15 290 -46
730 -6 83 -13 230 -16 327 -5 163 -4 181 16 235 30 82 67 132 125 167 l50 31
375 5 c402 5 397 5 443 59 59 71 60 77 47 532 -6 228 -15 671 -19 984 -23
1502 -38 1915 -82 2185 -6 36 -15 99 -19 140 -5 41 -11 82 -15 92 -3 9 -13 56
-20 105 -24 153 -38 221 -75 363 -6 25 -15 66 -20 93 -5 26 -13 62 -19 80 -6
17 -20 66 -31 107 -32 116 -52 182 -65 220 -7 19 -18 51 -24 70 -7 19 -17 53
-22 75 -6 21 -14 44 -18 50 -5 5 -14 26 -19 45 -13 42 -39 117 -51 145 -5 11
-17 40 -27 65 -21 54 -52 128 -64 155 -5 11 -16 38 -25 60 -42 105 -201 428
-254 516 -12 19 -24 41 -28 49 -52 112 -281 463 -438 670 -159 210 -347 424
-386 440 -16 7 -29 16 -29 21 0 5 -30 9 -67 8 -51 0 -77 -6 -103 -22z m320
-770 c16 -12 190 -261 190 -271 0 -2 23 -39 50 -80 28 -42 50 -78 50 -81 0 -3
12 -24 27 -48 42 -66 86 -149 177 -332 85 -171 110 -225 161 -345 34 -80 48
-114 69 -163 9 -21 16 -42 16 -47 0 -5 5 -21 12 -37 20 -51 79 -217 87 -248 4
-17 13 -40 19 -52 7 -12 12 -32 12 -45 0 -13 7 -36 15 -52 8 -15 15 -34 15
-40 0 -7 9 -42 19 -77 10 -35 26 -93 36 -129 9 -36 23 -88 31 -116 8 -28 14
-62 14 -75 0 -13 6 -44 14 -69 8 -25 20 -74 26 -110 6 -36 17 -101 24 -145 8
-44 19 -114 26 -155 6 -41 16 -77 22 -79 7 -2 7 -6 0 -10 -8 -4 -7 -37 3 -106
29 -201 35 -343 45 -985 6 -381 14 -670 20 -691 6 -22 10 -209 11 -465 1 -236
4 -571 8 -744 3 -173 5 -321 3 -327 -3 -10 -57 -13 -221 -14 -206 0 -240 -3
-356 -27 -150 -32 -310 -165 -394 -327 -79 -154 -96 -264 -81 -535 15 -291 39
-668 51 -820 5 -74 14 -237 19 -363 5 -125 13 -242 18 -260 6 -17 14 -113 18
-212 8 -189 9 -207 24 -430 6 -77 17 -255 25 -395 9 -140 20 -313 26 -385 5
-71 14 -236 19 -365 5 -129 14 -246 19 -260 5 -14 13 -108 17 -210 9 -211 10
-232 24 -430 35 -491 35 -497 12 -595 -20 -84 -85 -178 -156 -223 -58 -38
-153 -38 -211 0 -55 35 -97 84 -131 154 l-29 59 -3 840 c-2 462 4 1578 13
2480 8 902 16 1966 16 2365 1 399 4 1015 8 1370 17 1712 21 2119 27 3373 5
959 10 1347 18 1347 6 0 18 -6 26 -13z"/>
<path d="M8170 16498 c-91 -4 -220 -15 -286 -23 -67 -8 -141 -15 -165 -15 -24
0 -60 -5 -79 -10 -19 -6 -73 -15 -120 -20 -97 -11 -242 -35 -347 -56 -145 -29
-229 -46 -268 -56 -22 -5 -67 -15 -100 -23 -73 -16 -132 -31 -205 -51 -30 -9
-80 -23 -110 -31 -30 -8 -73 -21 -95 -28 -22 -7 -74 -23 -115 -35 -41 -12 -90
-28 -108 -36 -18 -8 -41 -14 -50 -14 -10 0 -27 -7 -38 -15 -10 -8 -27 -15 -37
-15 -11 0 -33 -6 -50 -14 -18 -7 -59 -23 -92 -35 -127 -48 -141 -53 -168 -67
-16 -8 -33 -14 -39 -14 -6 0 -32 -10 -57 -21 -25 -12 -61 -28 -78 -36 -79 -34
-103 -44 -178 -78 -128 -59 -415 -202 -480 -240 -33 -19 -67 -38 -75 -41 -8
-4 -95 -55 -193 -113 -98 -58 -186 -110 -195 -116 -25 -14 -288 -192 -340
-229 -562 -404 -1071 -874 -1490 -1376 -239 -286 -496 -645 -681 -951 -45 -73
-86 -141 -91 -149 -6 -8 -16 -26 -22 -40 -7 -14 -32 -58 -55 -98 -39 -65 -283
-556 -320 -642 -8 -19 -19 -43 -24 -53 -5 -9 -20 -47 -34 -85 -14 -37 -32 -80
-39 -97 -8 -16 -22 -50 -31 -75 -10 -25 -22 -56 -28 -70 -15 -37 -77 -210 -87
-245 -8 -31 -23 -73 -46 -135 -7 -19 -22 -69 -34 -110 -12 -41 -26 -86 -31
-100 -5 -14 -13 -45 -18 -70 -5 -25 -14 -58 -19 -75 -6 -16 -15 -50 -22 -75
-6 -25 -18 -72 -26 -105 -22 -88 -60 -266 -84 -390 -6 -33 -18 -91 -25 -130
-8 -38 -19 -106 -25 -150 -5 -44 -14 -111 -20 -150 -5 -38 -12 -90 -14 -115
-3 -25 -10 -76 -15 -115 -6 -38 -11 -124 -13 -189 -2 -84 -7 -121 -16 -124 -9
-3 -12 -114 -12 -509 0 -435 2 -506 15 -519 12 -12 15 -42 15 -132 0 -64 5
-144 10 -177 6 -33 17 -114 25 -180 28 -224 36 -280 51 -337 7 -32 14 -72 14
-90 0 -18 5 -49 10 -68 6 -19 17 -66 25 -105 40 -199 76 -350 114 -478 5 -18
16 -57 24 -87 30 -107 60 -206 84 -275 14 -38 27 -79 30 -90 3 -11 14 -45 25
-75 11 -30 27 -72 34 -92 8 -21 21 -56 29 -78 54 -144 74 -194 117 -288 15
-34 28 -65 28 -68 0 -3 12 -31 26 -62 137 -299 273 -563 401 -777 7 -11 17
-29 22 -40 5 -11 41 -69 80 -130 39 -60 84 -132 101 -160 17 -27 53 -81 81
-120 27 -38 62 -88 76 -110 74 -110 289 -387 378 -490 34 -38 66 -78 71 -87
17 -30 424 -468 495 -532 24 -22 71 -65 104 -95 189 -176 275 -250 495 -426
138 -110 209 -165 285 -219 89 -64 448 -302 520 -345 39 -23 77 -46 85 -51
151 -93 527 -290 720 -377 30 -13 78 -35 105 -48 90 -42 339 -142 420 -170 22
-7 65 -23 95 -35 30 -12 69 -25 85 -30 38 -10 91 -29 131 -46 18 -7 48 -16 68
-19 20 -4 39 -11 42 -16 3 -5 14 -9 25 -9 10 0 45 -8 76 -19 93 -30 258 -76
328 -91 28 -6 77 -17 110 -25 60 -13 94 -21 217 -49 36 -9 79 -16 94 -16 15 0
53 -6 83 -14 67 -17 151 -31 376 -60 22 -3 65 -10 95 -15 30 -5 101 -10 157
-10 76 -1 105 -5 117 -16 13 -13 100 -15 664 -15 497 0 651 3 654 12 3 8 51
14 150 19 81 4 155 12 165 17 10 5 38 10 63 11 25 1 72 6 105 12 33 5 101 16
150 24 50 8 115 19 145 25 96 18 193 38 245 50 28 6 79 17 115 25 91 19 151
34 318 81 154 44 384 114 417 128 17 8 45 17 62 20 18 4 35 12 38 17 4 5 14 9
23 9 9 0 29 6 43 14 14 7 39 16 55 20 16 4 43 13 59 21 17 7 55 23 85 35 30
11 64 25 75 30 11 4 81 34 155 65 109 46 547 258 610 295 42 25 192 111 245
140 115 64 422 263 600 390 195 139 517 397 650 521 33 30 125 116 204 190
198 183 533 546 686 743 22 28 69 87 104 131 57 72 115 150 206 279 142 202
336 510 465 741 88 157 266 522 330 676 17 40 37 88 45 104 28 61 45 103 45
110 0 4 7 23 16 43 9 21 22 52 30 70 8 18 14 37 14 43 0 6 7 25 15 42 17 38
37 94 71 202 14 44 29 89 34 100 17 43 50 152 50 168 0 9 6 31 14 49 7 18 19
53 25 78 28 106 43 168 54 220 7 30 15 60 19 66 4 7 12 41 17 77 5 36 14 74
20 85 6 12 11 35 11 53 0 18 6 58 14 88 16 64 42 206 55 301 5 36 14 97 20
135 21 144 40 324 46 440 3 66 10 122 16 123 13 5 12 1049 -1 1054 -5 2 -12
57 -15 123 -3 66 -12 170 -20 230 -30 227 -36 272 -49 360 -27 173 -58 338
-81 435 -58 245 -89 372 -100 410 -8 25 -20 70 -29 100 -64 227 -85 273 -144
315 -38 26 -52 30 -111 30 -57 0 -74 -4 -110 -28 -45 -30 -76 -72 -91 -127 -9
-34 7 -138 32 -200 10 -24 23 -68 54 -180 14 -52 23 -86 61 -235 8 -33 19 -82
25 -110 5 -27 16 -71 24 -96 8 -26 14 -60 14 -77 0 -17 5 -43 11 -59 11 -31
36 -178 73 -448 55 -393 73 -862 51 -1330 -8 -181 -19 -352 -25 -380 -5 -27
-9 -74 -9 -104 -1 -30 -8 -98 -16 -150 -38 -235 -58 -350 -71 -407 -8 -33 -14
-71 -14 -84 0 -13 -6 -46 -14 -74 -8 -28 -28 -112 -46 -186 -17 -74 -40 -166
-51 -205 -45 -162 -51 -181 -61 -210 -5 -16 -14 -47 -19 -68 -5 -21 -13 -45
-18 -55 -5 -9 -20 -53 -34 -97 -50 -156 -73 -220 -93 -258 -8 -16 -14 -33 -14
-38 0 -6 -8 -29 -18 -52 -10 -23 -27 -62 -36 -87 -29 -71 -41 -100 -112 -260
-69 -157 -304 -608 -364 -700 -6 -8 -13 -22 -17 -30 -18 -38 -211 -337 -295
-456 -125 -176 -165 -232 -221 -301 -34 -43 -69 -88 -77 -100 -111 -162 -697
-769 -965 -999 -156 -134 -425 -345 -575 -449 -128 -90 -395 -265 -404 -265
-3 0 -24 -13 -48 -29 -24 -16 -65 -41 -93 -55 -27 -15 -66 -37 -85 -48 -98
-59 -460 -243 -610 -310 -25 -11 -61 -27 -80 -36 -19 -8 -50 -21 -67 -29 -18
-7 -48 -19 -65 -27 -45 -19 -250 -99 -335 -130 -83 -30 -110 -38 -146 -47 -21
-5 -45 -13 -55 -18 -23 -13 -145 -51 -161 -51 -7 0 -27 -6 -44 -14 -31 -13
-63 -22 -177 -51 -30 -7 -84 -21 -120 -30 -36 -9 -94 -23 -130 -30 -36 -7 -81
-18 -100 -23 -122 -35 -473 -91 -820 -131 -308 -36 -873 -46 -1215 -23 -166
11 -482 43 -570 58 -16 3 -70 11 -120 19 -190 30 -318 53 -410 76 -22 6 -69
16 -105 24 -116 24 -187 42 -198 49 -7 4 -33 11 -60 16 -26 4 -60 13 -77 18
-16 6 -52 17 -80 25 -77 22 -288 89 -310 98 -39 16 -110 40 -144 49 -18 5 -38
13 -44 19 -6 6 -19 11 -29 11 -10 0 -35 9 -55 20 -21 11 -43 20 -50 20 -6 0
-24 6 -40 14 -15 8 -48 22 -73 32 -25 9 -73 30 -108 46 -34 15 -65 28 -69 28
-14 0 -332 156 -508 250 -140 75 -166 89 -200 111 -16 10 -37 22 -45 26 -8 3
-39 21 -68 40 -29 18 -55 33 -58 33 -2 0 -17 9 -32 19 -15 11 -85 58 -157 104
-71 47 -156 104 -187 126 -32 22 -81 57 -110 77 -78 55 -190 141 -303 234 -55
45 -130 106 -168 136 -107 88 -428 396 -592 570 -305 322 -544 625 -788 994
-49 74 -97 146 -106 160 -10 14 -20 32 -24 40 -4 8 -15 27 -25 42 -31 48 -98
162 -129 218 -17 30 -45 82 -63 115 -40 72 -188 370 -219 440 -13 28 -30 66
-39 85 -8 19 -21 49 -28 65 -14 35 -38 92 -58 138 -8 17 -26 62 -40 100 -14
37 -37 95 -50 130 -13 34 -26 71 -29 82 -8 27 -36 106 -47 130 -5 11 -18 54
-30 95 -24 84 -41 138 -60 190 -6 19 -16 51 -20 70 -4 19 -18 71 -30 115 -24
89 -45 177 -65 275 -7 36 -18 78 -24 93 -6 16 -11 42 -11 59 0 16 -6 57 -14
91 -30 126 -54 286 -80 517 -8 69 -19 170 -25 225 -28 250 -28 987 0 1265 33
332 68 584 105 750 8 36 14 76 14 89 0 13 6 47 14 75 8 28 24 94 36 146 20 91
32 136 66 260 9 30 23 80 31 110 24 86 40 138 74 240 18 52 36 109 40 125 4
17 17 55 29 85 12 30 26 71 32 90 5 19 13 40 17 45 4 6 17 37 30 70 96 251
304 694 410 873 17 29 31 55 31 57 0 16 205 345 329 530 214 317 395 547 654
832 411 453 863 844 1375 1191 62 43 121 82 130 87 9 6 61 37 115 70 54 33
106 65 116 70 11 6 25 16 32 22 8 6 46 28 84 48 39 21 97 53 130 71 147 81
498 250 640 308 50 21 104 43 120 51 47 21 208 82 230 88 11 3 45 15 75 27 30
11 91 33 135 47 44 14 119 38 167 54 48 16 94 29 102 29 8 0 27 5 43 12 15 6
51 17 78 24 28 7 79 20 115 29 151 38 177 45 225 55 260 57 416 83 770 129
190 25 445 41 645 41 246 0 286 8 351 73 44 44 54 81 46 167 -6 71 -42 124
-102 151 -35 16 -65 18 -225 17 -102 -1 -259 -5 -350 -10z"/>
<path d="M3179 13007 c-18 -12 -44 -38 -56 -56 l-23 -34 0 -3922 0 -3922 23
-33 c12 -18 35 -43 50 -54 l28 -21 2809 0 2809 0 28 21 c15 11 40 38 55 60
l27 39 0 3905 c0 3657 -1 3907 -17 3940 -9 19 -36 49 -60 67 l-44 33 -2797 0
-2798 0 -34 -23z m5399 -4009 l-3 -3683 -2567 -3 -2568 -2 0 3685 0 3685 2570
0 2570 0 -2 -3682z"/>
<path d="M3914 12281 c-23 -10 -52 -34 -65 -52 l-24 -34 -3 -990 c-1 -544 0
-1000 3 -1013 9 -37 74 -101 113 -112 56 -15 4098 -14 4143 2 46 15 81 43 101
81 16 30 17 108 18 1027 l0 995 -25 38 c-14 20 -43 46 -65 57 -39 20 -58 20
-2097 20 -1985 0 -2059 -1 -2099 -19z m3944 -1093 l-3 -763 -1847 -3 -1848 -2
0 765 0 765 1850 0 1850 0 -2 -762z"/>
<path d="M3944 9871 c-23 -10 -52 -34 -65 -52 l-24 -34 -3 -915 -2 -915 22
-45 c15 -30 36 -52 63 -67 l40 -22 903 -1 c878 0 905 1 942 20 21 11 49 34 62
52 l23 33 3 922 2 923 -27 41 c-14 22 -43 49 -64 59 -36 19 -73 19 -936 19
-854 1 -900 0 -939 -18z m1626 -1013 l0 -688 -690 0 -690 0 0 688 0 687 690 0
690 0 0 -687z"/>
<path d="M4824 9397 c-38 -15 -74 -44 -97 -79 -14 -22 -17 -51 -17 -158 l0
-130 -112 0 c-136 0 -174 -9 -215 -52 -72 -74 -72 -172 0 -246 41 -43 79 -52
215 -52 l112 0 0 -127 c0 -144 8 -168 76 -219 31 -24 47 -29 93 -29 46 0 63 5
98 30 63 45 73 75 73 220 l0 123 133 4 c129 3 135 4 175 32 23 16 42 34 42 41
0 7 7 18 15 25 22 18 20 129 -2 159 -59 79 -92 91 -250 91 l-113 0 0 127 c0
116 -2 130 -25 168 -40 70 -126 100 -201 72z"/>
<path d="M6234 9872 c-37 -20 -75 -65 -92 -107 -9 -23 -12 -247 -10 -927 l3
-896 31 -43 c62 -85 -17 -79 1001 -79 1005 0 934 -5 998 69 l30 34 3 916 c3
866 2 918 -15 951 -10 19 -26 43 -36 53 -47 48 -29 47 -984 46 -826 0 -900 -1
-929 -17z m1626 -1014 l0 -688 -690 0 -690 0 0 688 0 687 690 0 690 0 0 -687z"/>
<path d="M6739 9021 c-73 -23 -119 -88 -119 -167 0 -67 33 -121 89 -151 l44
-23 416 0 c470 1 458 -1 518 78 28 36 33 52 33 95 0 61 -22 102 -76 143 l-37
29 -421 2 c-232 1 -433 -2 -447 -6z"/>
<path d="M3974 7631 c-43 -11 -79 -39 -103 -83 -21 -36 -21 -40 -19 -955 l3
-920 29 -37 c53 -69 0 -66 995 -66 592 0 909 4 928 10 15 6 45 29 66 53 l37
41 0 926 c-1 915 -1 925 -21 957 -11 18 -37 43 -57 55 l-37 23 -895 2 c-492 0
-909 -2 -926 -6z m1596 -1031 l0 -690 -687 2 -688 3 -3 688 -2 687 690 0 690
0 0 -690z"/>
<path d="M4512 7010 c-47 -33 -72 -83 -72 -141 0 -59 17 -87 109 -181 l86 -88
-87 -87 c-48 -49 -92 -101 -97 -116 -50 -134 80 -271 215 -227 23 8 71 45 126
98 l88 85 88 -85 c56 -54 103 -90 126 -98 112 -37 226 47 226 166 0 62 -19 93
-116 190 l-76 76 86 87 c91 93 106 119 106 182 0 59 -23 104 -71 138 -35 26
-52 31 -96 31 -30 0 -64 -5 -76 -11 -12 -6 -61 -49 -108 -96 l-86 -85 -79 78
c-103 101 -126 114 -195 114 -46 0 -63 -5 -97 -30z"/>
<path d="M6264 7631 c-42 -11 -71 -32 -102 -78 l-27 -38 -3 -895 c-2 -799 -1
-899 13 -937 22 -57 73 -100 127 -108 24 -3 444 -5 933 -3 l890 3 33 23 c18
13 41 41 52 62 19 38 20 62 20 945 0 760 -2 910 -14 933 -23 43 -71 83 -112
93 -47 10 -1765 10 -1810 0z m1596 -1031 l0 -690 -690 0 -690 0 0 690 0 690
690 0 690 0 0 -690z"/>
<path d="M7091 7058 c-70 -36 -86 -65 -86 -159 0 -79 0 -79 40 -119 33 -32 51
-42 92 -49 89 -14 169 31 194 107 15 45 5 135 -18 166 -53 71 -146 94 -222 54z"/>
<path d="M7088 6440 c-60 -32 -83 -74 -85 -154 -2 -81 19 -122 80 -157 31 -17
50 -20 98 -17 63 5 97 23 133 72 31 41 30 159 -2 203 -47 66 -151 91 -224 53z"/>
<path d="M6740 3420 l0 -961 113 3 112 3 3 273 2 274 67 74 c68 75 86 86 97
58 3 -9 79 -138 169 -287 89 -148 169 -282 177 -296 8 -14 26 -43 38 -63 l24
-38 134 0 c74 0 134 3 134 6 0 3 -13 26 -30 51 -16 24 -30 46 -30 49 0 3 -13
24 -29 47 -15 23 -56 88 -89 144 -34 56 -77 127 -97 157 -19 31 -51 81 -71
112 -19 30 -43 70 -53 87 -10 18 -44 73 -75 124 -31 50 -56 95 -56 100 1 4
103 116 229 248 273 286 269 275 90 275 l-116 0 -59 -63 c-65 -69 -128 -138
-249 -272 -44 -48 -108 -118 -142 -154 l-62 -66 -1 538 0 537 -115 0 -115 0 0
-960z"/>
<path d="M10595 4368 c-3 -7 -4 -438 -3 -958 l3 -945 108 -3 107 -3 0 961 0
960 -105 0 c-75 0 -107 -4 -110 -12z"/>
<path d="M8329 3865 c-178 -49 -306 -181 -373 -387 -22 -66 -46 -238 -46 -323
0 -69 20 -222 39 -295 26 -105 98 -228 172 -294 53 -48 149 -98 221 -116 70
-18 305 -9 347 13 19 9 38 17 43 17 14 0 98 60 134 94 65 64 117 157 154 282
22 73 14 86 -60 100 -36 7 -81 13 -101 13 -34 1 -37 -2 -48 -41 -66 -221 -168
-310 -341 -295 -146 12 -236 94 -298 272 -14 40 -32 183 -32 256 0 106 20 221
52 299 26 61 36 77 85 130 45 48 63 60 120 79 96 30 151 28 228 -9 53 -25 70
-40 104 -91 22 -34 45 -77 51 -97 16 -60 23 -66 66 -57 22 4 62 10 89 14 84
11 90 23 54 123 -58 164 -171 274 -324 313 -69 18 -271 18 -336 0z"/>
<path d="M9551 3865 c-130 -29 -249 -113 -302 -211 -35 -66 -73 -184 -63 -193
12 -10 174 -34 198 -30 13 3 24 21 35 56 42 134 147 203 307 203 200 0 299
-84 305 -257 1 -38 -1 -75 -5 -81 -13 -22 -151 -54 -346 -81 -221 -30 -345
-76 -431 -161 -60 -59 -85 -113 -99 -209 -27 -192 50 -349 208 -424 63 -30 74
-32 206 -35 144 -4 190 3 276 41 49 22 152 88 186 119 25 23 29 19 39 -42 4
-25 14 -57 21 -72 15 -28 15 -28 124 -28 110 0 110 0 110 24 0 14 -4 27 -9 30
-9 6 -13 19 -32 106 -6 25 -14 252 -18 505 -6 409 -9 466 -25 510 -39 107
-110 176 -224 218 -48 18 -84 21 -227 24 -121 2 -189 -2 -234 -12z m476 -812
c-3 -54 -9 -117 -15 -140 -13 -57 -58 -148 -95 -190 -94 -107 -326 -136 -447
-56 -63 41 -107 145 -87 207 22 71 39 97 78 126 46 33 83 46 174 61 175 29
253 45 315 67 87 31 83 35 77 -75z"/>
</g>
</svg>
